<?xml version="1.0" encoding="UTF-8"?>
<!DOCTYPE svg PUBLIC "-//W3C//DTD SVG 1.1//EN" "http://www.w3.org/Graphics/SVG/1.1/DTD/svg11.dtd">
<svg version="1.2" width="363.36mm" height="172.54mm" viewBox="3127 1613 36336 17254" preserveAspectRatio="xMidYMid" fill-rule="evenodd" stroke-width="28.222" stroke-linejoin="round" xmlns="http://www.w3.org/2000/svg" xmlns:ooo="http://xml.openoffice.org/svg/export" xmlns:xlink="http://www.w3.org/1999/xlink" xmlns:presentation="http://sun.com/xmlns/staroffice/presentation" xmlns:smil="http://www.w3.org/2001/SMIL20/" xmlns:anim="urn:oasis:names:tc:opendocument:xmlns:animation:1.0" xml:space="preserve">
 <defs class="EmbeddedBulletChars">
  <g id="bullet-char-template-57356" transform="scale(0.00048828125,-0.00048828125)">
   <path d="M 580,1141 L 1163,571 580,0 -4,571 580,1141 Z"/>
  </g>
  <g id="bullet-char-template-57354" transform="scale(0.00048828125,-0.00048828125)">
   <path d="M 8,1128 L 1137,1128 1137,0 8,0 8,1128 Z"/>
  </g>
  <g id="bullet-char-template-10146" transform="scale(0.00048828125,-0.00048828125)">
   <path d="M 174,0 L 602,739 174,1481 1456,739 174,0 Z M 1358,739 L 309,1346 659,739 1358,739 Z"/>
  </g>
  <g id="bullet-char-template-10132" transform="scale(0.00048828125,-0.00048828125)">
   <path d="M 2015,739 L 1276,0 717,0 1260,543 174,543 174,936 1260,936 717,1481 1274,1481 2015,739 Z"/>
  </g>
  <g id="bullet-char-template-10007" transform="scale(0.00048828125,-0.00048828125)">
   <path d="M 0,-2 C -7,14 -16,27 -25,37 L 356,567 C 262,823 215,952 215,954 215,979 228,992 255,992 264,992 276,990 289,987 310,991 331,999 354,1012 L 381,999 492,748 772,1049 836,1024 860,1049 C 881,1039 901,1025 922,1006 886,937 835,863 770,784 769,783 710,716 594,584 L 774,223 C 774,196 753,168 711,139 L 727,119 C 717,90 699,76 672,76 641,76 570,178 457,381 L 164,-76 C 142,-110 111,-127 72,-127 30,-127 9,-110 8,-76 1,-67 -2,-52 -2,-32 -2,-23 -1,-13 0,-2 Z"/>
  </g>
  <g id="bullet-char-template-10004" transform="scale(0.00048828125,-0.00048828125)">
   <path d="M 285,-33 C 182,-33 111,30 74,156 52,228 41,333 41,471 41,549 55,616 82,672 116,743 169,778 240,778 293,778 328,747 346,684 L 369,508 C 377,444 397,411 428,410 L 1163,1116 C 1174,1127 1196,1133 1229,1133 1271,1133 1292,1118 1292,1087 L 1292,965 C 1292,929 1282,901 1262,881 L 442,47 C 390,-6 338,-33 285,-33 Z"/>
  </g>
  <g id="bullet-char-template-9679" transform="scale(0.00048828125,-0.00048828125)">
   <path d="M 813,0 C 632,0 489,54 383,161 276,268 223,411 223,592 223,773 276,916 383,1023 489,1130 632,1184 813,1184 992,1184 1136,1130 1245,1023 1353,916 1407,772 1407,592 1407,412 1353,268 1245,161 1136,54 992,0 813,0 Z"/>
  </g>
  <g id="bullet-char-template-8226" transform="scale(0.00048828125,-0.00048828125)">
   <path d="M 346,457 C 273,457 209,483 155,535 101,586 74,649 74,723 74,796 101,859 155,911 209,963 273,989 346,989 419,989 480,963 531,910 582,859 608,796 608,723 608,648 583,586 532,535 482,483 420,457 346,457 Z"/>
  </g>
  <g id="bullet-char-template-8211" transform="scale(0.00048828125,-0.00048828125)">
   <path d="M -4,459 L 1135,459 1135,606 -4,606 -4,459 Z"/>
  </g>
  <g id="bullet-char-template-61548" transform="scale(0.00048828125,-0.00048828125)">
   <path d="M 173,740 C 173,903 231,1043 346,1159 462,1274 601,1332 765,1332 928,1332 1067,1274 1183,1159 1299,1043 1357,903 1357,740 1357,577 1299,437 1183,322 1067,206 928,148 765,148 601,148 462,206 346,322 231,437 173,577 173,740 Z"/>
  </g>
 </defs>
 <g class="Page">
  <g class="com.sun.star.drawing.PolyPolygonShape">
   <g id="id3">
    <rect class="BoundingBox" stroke="none" fill="none" x="11583" y="1613" width="19076" height="2264"/>
    <path fill="rgb(255,255,255)" stroke="none" d="M 11584,1614 L 30657,1614 30657,3876 11584,3876 11584,1614 Z"/>
   </g>
  </g>
  <g class="com.sun.star.drawing.ClosedBezierShape">
   <g id="id4">
    <rect class="BoundingBox" stroke="none" fill="none" x="4718" y="7718" width="938" height="939"/>
    <path fill="rgb(95,186,167)" stroke="none" d="M 5464,8656 L 4910,8656 C 4805,8656 4719,8570 4719,8464 L 4719,7910 C 4719,7805 4805,7719 4910,7719 L 5464,7719 C 5570,7719 5655,7805 5655,7910 L 5655,8464 C 5655,8570 5570,8656 5464,8656 Z"/>
   </g>
  </g>
  <g class="com.sun.star.drawing.ClosedBezierShape">
   <g id="id5">
    <rect class="BoundingBox" stroke="none" fill="none" x="4395" y="7395" width="1343" height="1343"/>
    <path fill="rgb(43,43,43)" stroke="none" d="M 5415,7396 L 4718,7396 C 4540,7396 4396,7540 4396,7718 L 4396,8415 C 4396,8593 4540,8737 4718,8737 L 5415,8737 C 5593,8737 5737,8593 5737,8415 L 5737,7718 C 5737,7540 5593,7396 5415,7396 Z M 5574,8415 C 5574,8502 5502,8574 5415,8574 L 4718,8574 C 4631,8574 4559,8502 4559,8415 L 4559,7718 C 4559,7631 4631,7559 4718,7559 L 5415,7559 C 5502,7559 5574,7631 5574,7718 L 5574,8415 Z"/>
   </g>
  </g>
  <g class="com.sun.star.drawing.ClosedBezierShape">
   <g id="id6">
    <rect class="BoundingBox" stroke="none" fill="none" x="5846" y="7615" width="443" height="166"/>
    <path fill="rgb(43,43,43)" stroke="none" d="M 5929,7780 L 6206,7780 C 6251,7780 6288,7743 6288,7698 6288,7653 6251,7616 6206,7616 L 5929,7616 C 5883,7616 5847,7653 5847,7698 5847,7743 5883,7780 5929,7780 Z"/>
   </g>
  </g>
  <g class="com.sun.star.drawing.ClosedBezierShape">
   <g id="id7">
    <rect class="BoundingBox" stroke="none" fill="none" x="5846" y="7874" width="443" height="166"/>
    <path fill="rgb(43,43,43)" stroke="none" d="M 6206,7875 L 5929,7875 C 5883,7875 5847,7911 5847,7957 5847,8002 5883,8039 5929,8039 L 6206,8039 C 6251,8039 6288,8003 6288,7957 6288,7912 6251,7875 6206,7875 Z"/>
   </g>
  </g>
  <g class="com.sun.star.drawing.ClosedBezierShape">
   <g id="id8">
    <rect class="BoundingBox" stroke="none" fill="none" x="5846" y="8134" width="443" height="166"/>
    <path fill="rgb(43,43,43)" stroke="none" d="M 6206,8135 L 5929,8135 C 5883,8135 5847,8171 5847,8217 5847,8262 5883,8299 5929,8299 L 6206,8299 C 6251,8299 6288,8262 6288,8217 6288,8171 6251,8135 6206,8135 Z"/>
   </g>
  </g>
  <g class="com.sun.star.drawing.ClosedBezierShape">
   <g id="id9">
    <rect class="BoundingBox" stroke="none" fill="none" x="5846" y="8393" width="443" height="166"/>
    <path fill="rgb(43,43,43)" stroke="none" d="M 6206,8394 L 5929,8394 C 5883,8394 5847,8431 5847,8476 5847,8521 5883,8558 5929,8558 L 6206,8558 C 6251,8558 6288,8521 6288,8476 6288,8431 6251,8394 6206,8394 Z"/>
   </g>
  </g>
  <g class="com.sun.star.drawing.ClosedBezierShape">
   <g id="id10">
    <rect class="BoundingBox" stroke="none" fill="none" x="3848" y="7615" width="443" height="166"/>
    <path fill="rgb(43,43,43)" stroke="none" d="M 4208,7616 L 3931,7616 C 3886,7616 3849,7653 3849,7698 3849,7743 3886,7780 3931,7780 L 4208,7780 C 4254,7780 4290,7743 4290,7698 4290,7653 4254,7616 4208,7616 Z"/>
   </g>
  </g>
  <g class="com.sun.star.drawing.ClosedBezierShape">
   <g id="id11">
    <rect class="BoundingBox" stroke="none" fill="none" x="3848" y="7874" width="443" height="166"/>
    <path fill="rgb(43,43,43)" stroke="none" d="M 4208,7875 L 3931,7875 C 3886,7875 3849,7911 3849,7957 3849,8002 3886,8039 3931,8039 L 4208,8039 C 4254,8039 4290,8003 4290,7957 4290,7912 4254,7875 4208,7875 Z"/>
   </g>
  </g>
  <g class="com.sun.star.drawing.ClosedBezierShape">
   <g id="id12">
    <rect class="BoundingBox" stroke="none" fill="none" x="3848" y="8134" width="443" height="166"/>
    <path fill="rgb(43,43,43)" stroke="none" d="M 4208,8135 L 3931,8135 C 3886,8135 3849,8171 3849,8217 3849,8262 3886,8299 3931,8299 L 4208,8299 C 4254,8299 4290,8262 4290,8217 4290,8171 4254,8135 4208,8135 Z"/>
   </g>
  </g>
  <g class="com.sun.star.drawing.ClosedBezierShape">
   <g id="id13">
    <rect class="BoundingBox" stroke="none" fill="none" x="3848" y="8393" width="443" height="166"/>
    <path fill="rgb(43,43,43)" stroke="none" d="M 4208,8394 L 3931,8394 C 3886,8394 3849,8431 3849,8476 3849,8521 3886,8558 3931,8558 L 4208,8558 C 4254,8558 4290,8521 4290,8476 4290,8431 4254,8394 4208,8394 Z"/>
   </g>
  </g>
  <g class="com.sun.star.drawing.ClosedBezierShape">
   <g id="id14">
    <rect class="BoundingBox" stroke="none" fill="none" x="5375" y="8864" width="165" height="443"/>
    <path fill="rgb(43,43,43)" stroke="none" d="M 5458,8865 C 5412,8865 5376,8902 5376,8947 L 5376,9225 C 5376,9270 5412,9306 5458,9306 5503,9306 5539,9270 5539,9225 L 5539,8947 C 5539,8902 5503,8865 5458,8865 Z"/>
   </g>
  </g>
  <g class="com.sun.star.drawing.ClosedBezierShape">
   <g id="id15">
    <rect class="BoundingBox" stroke="none" fill="none" x="5115" y="8864" width="166" height="443"/>
    <path fill="rgb(43,43,43)" stroke="none" d="M 5198,8865 C 5153,8865 5116,8902 5116,8947 L 5116,9225 C 5116,9270 5153,9306 5198,9306 5243,9306 5280,9270 5280,9225 L 5280,8947 C 5280,8902 5243,8865 5198,8865 Z"/>
   </g>
  </g>
  <g class="com.sun.star.drawing.ClosedBezierShape">
   <g id="id16">
    <rect class="BoundingBox" stroke="none" fill="none" x="4856" y="8864" width="166" height="443"/>
    <path fill="rgb(43,43,43)" stroke="none" d="M 4939,8865 C 4893,8865 4857,8902 4857,8947 L 4857,9225 C 4857,9270 4893,9306 4939,9306 4984,9306 5021,9270 5021,9225 L 5021,8947 C 5021,8902 4984,8865 4939,8865 Z"/>
   </g>
  </g>
  <g class="com.sun.star.drawing.ClosedBezierShape">
   <g id="id17">
    <rect class="BoundingBox" stroke="none" fill="none" x="4596" y="8864" width="166" height="443"/>
    <path fill="rgb(43,43,43)" stroke="none" d="M 4679,8865 C 4634,8865 4597,8902 4597,8947 L 4597,9225 C 4597,9270 4633,9306 4679,9306 4724,9306 4761,9270 4761,9225 L 4761,8947 C 4761,8902 4725,8865 4679,8865 Z"/>
   </g>
  </g>
  <g class="com.sun.star.drawing.ClosedBezierShape">
   <g id="id18">
    <rect class="BoundingBox" stroke="none" fill="none" x="5375" y="6867" width="165" height="443"/>
    <path fill="rgb(43,43,43)" stroke="none" d="M 5458,7309 C 5503,7309 5539,7272 5539,7227 L 5539,6950 C 5539,6904 5503,6868 5458,6868 5412,6868 5376,6904 5376,6950 L 5376,7227 C 5376,7272 5412,7309 5458,7309 Z"/>
   </g>
  </g>
  <g class="com.sun.star.drawing.ClosedBezierShape">
   <g id="id19">
    <rect class="BoundingBox" stroke="none" fill="none" x="5115" y="6867" width="166" height="443"/>
    <path fill="rgb(43,43,43)" stroke="none" d="M 5198,7309 C 5243,7309 5280,7272 5280,7227 L 5280,6950 C 5280,6904 5243,6868 5198,6868 5153,6868 5116,6904 5116,6950 L 5116,7227 C 5116,7272 5153,7309 5198,7309 Z"/>
   </g>
  </g>
  <g class="com.sun.star.drawing.ClosedBezierShape">
   <g id="id20">
    <rect class="BoundingBox" stroke="none" fill="none" x="4856" y="6867" width="166" height="443"/>
    <path fill="rgb(43,43,43)" stroke="none" d="M 4939,7309 C 4984,7309 5021,7272 5021,7227 L 5021,6950 C 5021,6904 4984,6868 4939,6868 4893,6868 4857,6904 4857,6950 L 4857,7227 C 4857,7272 4893,7309 4939,7309 Z"/>
   </g>
  </g>
  <g class="com.sun.star.drawing.ClosedBezierShape">
   <g id="id21">
    <rect class="BoundingBox" stroke="none" fill="none" x="4596" y="6867" width="166" height="443"/>
    <path fill="rgb(43,43,43)" stroke="none" d="M 4679,7309 C 4725,7309 4761,7272 4761,7227 L 4761,6950 C 4761,6904 4724,6868 4679,6868 4633,6868 4597,6904 4597,6950 L 4597,7227 C 4597,7272 4634,7309 4679,7309 Z"/>
   </g>
  </g>
  <g class="com.sun.star.drawing.PolyPolygonShape">
   <g id="id22">
    <rect class="BoundingBox" stroke="none" fill="none" x="8846" y="7349" width="2571" height="1461"/>
    <path fill="rgb(235,209,0)" stroke="none" d="M 8847,7350 L 11416,7350 11416,8809 8847,8809 8847,7350 Z"/>
   </g>
  </g>
  <g class="com.sun.star.drawing.ClosedBezierShape">
   <g id="id23">
    <rect class="BoundingBox" stroke="none" fill="none" x="8381" y="6878" width="3159" height="2418"/>
    <path fill="rgb(43,43,43)" stroke="none" d="M 11457,6879 L 8464,6879 C 8419,6879 8382,6915 8382,6961 L 8382,8817 C 8382,8863 8419,8899 8464,8899 L 9879,8899 9879,9131 9327,9131 C 9282,9131 9245,9167 9245,9213 9245,9258 9282,9295 9327,9295 L 10594,9295 C 10639,9295 10676,9258 10676,9213 10676,9167 10639,9131 10594,9131 L 10042,9131 10042,8899 11457,8899 C 11502,8899 11539,8863 11539,8817 L 11539,6961 C 11539,6915 11502,6879 11457,6879 Z M 11375,8736 L 8546,8736 8546,7043 11375,7043 11375,8736 Z"/>
   </g>
  </g>
  <g class="com.sun.star.drawing.ClosedBezierShape">
   <g id="id24">
    <rect class="BoundingBox" stroke="none" fill="none" x="13943" y="11663" width="2156" height="2155"/>
    <path fill="rgb(232,95,99)" stroke="none" d="M 15869,12623 L 16098,12416 C 16076,12344 16047,12274 16012,12208 L 15691,12225 15536,12077 15553,11750 C 15487,11715 15418,11686 15345,11664 L 15122,11911 14920,11911 14697,11664 C 14624,11686 14555,11715 14489,11750 L 14506,12077 14351,12225 14030,12208 C 13995,12274 13966,12344 13944,12416 L 14173,12623 14166,12864 13944,13064 C 13966,13136 13995,13206 14030,13272 L 14315,13257 14503,13451 14489,13730 C 14555,13766 14624,13794 14697,13816 L 14880,13613 15162,13613 15345,13816 C 15418,13794 15487,13766 15553,13730 L 15539,13451 15727,13257 16012,13272 C 16047,13206 16076,13136 16098,13064 L 15876,12864 15869,12623 Z M 15021,13219 C 14756,13219 14541,13006 14541,12741 14541,12475 14756,12261 15021,12261 15286,12261 15501,12475 15501,12741 15501,13006 15286,13219 15021,13219 Z"/>
   </g>
  </g>
  <g class="com.sun.star.drawing.PolyPolygonShape">
   <g id="id25">
    <rect class="BoundingBox" stroke="none" fill="none" x="24035" y="7282" width="1063" height="1932"/>
    <path fill="rgb(95,186,167)" stroke="none" d="M 24035,7283 L 25096,7283 25096,9213 24035,9213 24035,7283 Z"/>
   </g>
  </g>
  <g class="com.sun.star.drawing.ClosedBezierShape">
   <g id="id26">
    <rect class="BoundingBox" stroke="none" fill="none" x="24276" y="8448" width="308" height="308"/>
    <path fill="rgb(43,43,43)" stroke="none" d="M 24582,8602 C 24582,8629 24576,8656 24562,8679 24549,8702 24530,8721 24506,8735 24483,8748 24456,8755 24429,8755 24402,8755 24377,8748 24353,8735 24330,8721 24311,8702 24297,8679 24284,8656 24276,8629 24276,8602 24276,8575 24283,8549 24297,8526 24310,8503 24330,8483 24353,8470 24377,8456 24402,8449 24429,8449 24456,8449 24483,8456 24506,8470 24530,8483 24548,8503 24562,8526 24575,8549 24582,8575 24582,8602 Z"/>
   </g>
  </g>
  <g class="com.sun.star.drawing.ClosedBezierShape">
   <g id="id27">
    <rect class="BoundingBox" stroke="none" fill="none" x="23680" y="6878" width="1500" height="2418"/>
    <path fill="rgb(43,43,43)" stroke="none" d="M 25096,6879 L 23762,6879 C 23717,6879 23680,6915 23680,6961 L 23680,9213 C 23680,9259 23717,9295 23762,9295 L 25096,9295 C 25142,9295 25178,9259 25178,9213 L 25178,6961 C 25178,6915 25142,6879 25096,6879 Z M 25014,9131 L 23844,9131 23844,7043 25014,7043 25014,9131 Z"/>
   </g>
  </g>
  <g class="com.sun.star.drawing.ClosedBezierShape">
   <g id="id28">
    <rect class="BoundingBox" stroke="none" fill="none" x="24012" y="7318" width="837" height="166"/>
    <path fill="rgb(43,43,43)" stroke="none" d="M 24094,7483 L 24765,7483 C 24810,7483 24847,7446 24847,7401 24847,7355 24810,7319 24765,7319 L 24094,7319 C 24049,7319 24012,7356 24012,7401 24012,7447 24049,7483 24094,7483 Z"/>
   </g>
  </g>
  <g class="com.sun.star.drawing.ClosedBezierShape">
   <g id="id29">
    <rect class="BoundingBox" stroke="none" fill="none" x="24012" y="7674" width="837" height="166"/>
    <path fill="rgb(43,43,43)" stroke="none" d="M 24094,7839 L 24765,7839 C 24810,7839 24847,7802 24847,7757 24847,7712 24810,7675 24765,7675 L 24094,7675 C 24049,7675 24012,7712 24012,7757 24012,7802 24049,7839 24094,7839 Z"/>
   </g>
  </g>
  <g class="com.sun.star.drawing.ClosedBezierShape">
   <g id="id30">
    <rect class="BoundingBox" stroke="none" fill="none" x="24012" y="8820" width="837" height="166"/>
    <path fill="rgb(43,43,43)" stroke="none" d="M 24094,8985 L 24765,8985 C 24810,8985 24847,8948 24847,8903 24847,8858 24810,8821 24765,8821 L 24094,8821 C 24049,8821 24012,8858 24012,8903 24012,8948 24049,8985 24094,8985 Z"/>
   </g>
  </g>
  <g class="com.sun.star.drawing.ClosedBezierShape">
   <g id="id31">
    <rect class="BoundingBox" stroke="none" fill="none" x="19146" y="7334" width="1452" height="922"/>
    <path fill="rgb(235,209,0)" stroke="none" d="M 20597,8255 L 20597,7335 19215,7335 C 19178,7335 19147,7365 19147,7402 L 19147,8255 20597,8255 Z"/>
   </g>
  </g>
  <g class="com.sun.star.drawing.PolyPolygonShape">
   <g id="id32">
    <rect class="BoundingBox" stroke="none" fill="none" x="18942" y="8408" width="1615" height="450"/>
    <path fill="rgb(95,186,167)" stroke="none" d="M 20393,8857 L 20556,8409 19106,8409 18943,8857 20393,8857 Z"/>
   </g>
  </g>
  <g class="com.sun.star.drawing.ClosedBezierShape">
   <g id="id33">
    <rect class="BoundingBox" stroke="none" fill="none" x="18423" y="6869" width="2316" height="2436"/>
    <path fill="rgb(43,43,43)" stroke="none" d="M 20738,7065 C 20738,6957 20650,6870 20543,6870 L 18896,6870 C 18789,6870 18701,6957 18701,7065 L 18701,8367 18436,9081 C 18415,9138 18421,9195 18452,9239 18481,9280 18529,9304 18585,9304 L 20232,9304 C 20329,9304 20428,9232 20463,9136 L 20719,8406 20738,8350 20738,7065 Z M 18865,7065 C 18865,7048 18879,7034 18896,7034 L 20543,7034 C 20560,7034 20574,7048 20574,7065 L 20574,8242 18865,8242 18865,7065 Z M 20309,9081 C 20297,9114 20257,9140 20231,9140 L 18589,9140 C 18589,9139 18590,9138 18590,9138 L 18862,8406 20545,8406 20309,9081 Z"/>
   </g>
  </g>
  <g class="com.sun.star.drawing.PolyPolygonShape">
   <g id="id34">
    <rect class="BoundingBox" stroke="none" fill="none" x="18850" y="8508" width="251" height="185"/>
    <path fill="rgb(43,43,43)" stroke="none" d="M 18851,8692 L 19034,8692 19100,8509 18918,8509 18851,8692 Z"/>
   </g>
  </g>
  <g class="com.sun.star.drawing.PolyPolygonShape">
   <g id="id35">
    <rect class="BoundingBox" stroke="none" fill="none" x="19177" y="8508" width="250" height="185"/>
    <path fill="rgb(43,43,43)" stroke="none" d="M 19426,8509 L 19244,8509 19178,8692 19360,8692 19426,8509 Z"/>
   </g>
  </g>
  <g class="com.sun.star.drawing.PolyPolygonShape">
   <g id="id36">
    <rect class="BoundingBox" stroke="none" fill="none" x="19503" y="8508" width="250" height="185"/>
    <path fill="rgb(43,43,43)" stroke="none" d="M 19752,8509 L 19570,8509 19504,8692 19686,8692 19752,8509 Z"/>
   </g>
  </g>
  <g class="com.sun.star.drawing.PolyPolygonShape">
   <g id="id37">
    <rect class="BoundingBox" stroke="none" fill="none" x="19829" y="8508" width="251" height="185"/>
    <path fill="rgb(43,43,43)" stroke="none" d="M 20079,8509 L 19896,8509 19830,8692 20012,8692 20079,8509 Z"/>
   </g>
  </g>
  <g class="com.sun.star.drawing.PolyPolygonShape">
   <g id="id38">
    <rect class="BoundingBox" stroke="none" fill="none" x="20155" y="8508" width="251" height="185"/>
    <path fill="rgb(43,43,43)" stroke="none" d="M 20405,8509 L 20223,8509 20156,8692 20338,8692 20405,8509 Z"/>
   </g>
  </g>
  <g class="com.sun.star.drawing.PolyPolygonShape">
   <g id="id39">
    <rect class="BoundingBox" stroke="none" fill="none" x="18741" y="8809" width="251" height="184"/>
    <path fill="rgb(43,43,43)" stroke="none" d="M 18742,8992 L 18924,8992 18991,8810 18808,8810 18742,8992 Z"/>
   </g>
  </g>
  <g class="com.sun.star.drawing.PolyPolygonShape">
   <g id="id40">
    <rect class="BoundingBox" stroke="none" fill="none" x="19067" y="8809" width="251" height="184"/>
    <path fill="rgb(43,43,43)" stroke="none" d="M 19250,8992 L 19317,8810 19134,8810 19068,8992 19250,8992 Z"/>
   </g>
  </g>
  <g class="com.sun.star.drawing.PolyPolygonShape">
   <g id="id41">
    <rect class="BoundingBox" stroke="none" fill="none" x="19393" y="8809" width="251" height="184"/>
    <path fill="rgb(43,43,43)" stroke="none" d="M 19577,8992 L 19643,8810 19461,8810 19394,8992 19577,8992 Z"/>
   </g>
  </g>
  <g class="com.sun.star.drawing.PolyPolygonShape">
   <g id="id42">
    <rect class="BoundingBox" stroke="none" fill="none" x="19720" y="8809" width="250" height="184"/>
    <path fill="rgb(43,43,43)" stroke="none" d="M 19903,8992 L 19969,8810 19787,8810 19721,8992 19903,8992 Z"/>
   </g>
  </g>
  <g class="com.sun.star.drawing.PolyPolygonShape">
   <g id="id43">
    <rect class="BoundingBox" stroke="none" fill="none" x="20046" y="8809" width="250" height="184"/>
    <path fill="rgb(43,43,43)" stroke="none" d="M 20229,8992 L 20295,8810 20113,8810 20047,8992 20229,8992 Z"/>
   </g>
  </g>
  <g class="com.sun.star.drawing.ClosedBezierShape">
   <g id="id44">
    <rect class="BoundingBox" stroke="none" fill="none" x="27583" y="7489" width="1601" height="1540"/>
    <path fill="rgb(43,43,43)" stroke="none" d="M 28383,9028 C 27942,9028 27583,8669 27583,8228 27583,7912 27770,7625 28060,7497 28101,7479 28149,7497 28168,7539 28186,7580 28167,7628 28126,7647 27895,7749 27747,7977 27747,8228 27747,8579 28033,8864 28383,8864 28734,8864 29019,8579 29019,8228 29019,7977 28870,7749 28639,7647 28598,7628 28579,7580 28597,7539 28616,7497 28664,7479 28706,7497 28995,7625 29182,7912 29182,8228 29182,8669 28824,9028 28383,9028 Z"/>
   </g>
  </g>
  <g class="com.sun.star.drawing.ClosedBezierShape">
   <g id="id45">
    <rect class="BoundingBox" stroke="none" fill="none" x="28301" y="7145" width="166" height="1166"/>
    <path fill="rgb(43,43,43)" stroke="none" d="M 28383,8310 C 28337,8310 28301,8274 28301,8228 L 28301,7228 C 28301,7183 28338,7146 28383,7146 28429,7146 28465,7183 28465,7228 L 28465,8228 C 28465,8274 28428,8310 28383,8310 Z"/>
   </g>
  </g>
  <g class="com.sun.star.drawing.ClosedBezierShape">
   <g id="id46">
    <rect class="BoundingBox" stroke="none" fill="none" x="31990" y="7504" width="1384" height="1396"/>
    <path fill="rgb(232,95,99)" stroke="none" d="M 32230,7505 L 33330,8608 C 33387,8666 33387,8759 33329,8816 L 33290,8855 C 33232,8913 33139,8913 33081,8855 L 31990,7760 32230,7505 Z"/>
   </g>
  </g>
  <g class="com.sun.star.drawing.ClosedBezierShape">
   <g id="id47">
    <rect class="BoundingBox" stroke="none" fill="none" x="31828" y="7265" width="1633" height="1645"/>
    <path fill="rgb(43,43,43)" stroke="none" d="M 31872,8617 L 32750,7742 32731,7484 32948,7268 33128,7266 C 33173,7278 33198,7344 33166,7377 L 32970,7572 33155,7757 33362,7551 C 33390,7523 33447,7546 33457,7584 L 33459,7779 33243,7996 33006,7982 32119,8865 C 32061,8923 31968,8923 31911,8865 L 31871,8826 C 31814,8768 31814,8674 31872,8617 Z"/>
   </g>
  </g>
  <g class="com.sun.star.drawing.PolyPolygonShape">
   <g id="id48">
    <rect class="BoundingBox" stroke="none" fill="none" x="31597" y="7287" width="889" height="716"/>
    <path fill="rgb(232,95,99)" stroke="none" d="M 32484,7343 L 31825,8002 31597,7775 32049,7323 32103,7377 32428,7288 32484,7343 Z"/>
   </g>
  </g>
  <g class="com.sun.star.drawing.PolyPolygonShape">
   <g id="id49">
    <rect class="BoundingBox" stroke="none" fill="none" x="36309" y="8250" width="2377" height="780"/>
    <path fill="rgb(232,95,99)" stroke="none" d="M 36309,8251 L 38684,8251 38684,9029 36309,9029 36309,8251 Z"/>
   </g>
  </g>
  <g class="com.sun.star.drawing.ClosedBezierShape">
   <g id="id50">
    <rect class="BoundingBox" stroke="none" fill="none" x="36241" y="8153" width="256" height="257"/>
    <path fill="rgb(43,43,43)" stroke="none" d="M 36495,8282 C 36495,8304 36490,8325 36478,8345 36467,8364 36452,8381 36432,8392 36413,8403 36391,8409 36368,8409 36346,8409 36325,8403 36305,8392 36286,8381 36269,8364 36258,8345 36247,8325 36241,8304 36241,8282 36241,8259 36247,8237 36258,8218 36269,8199 36286,8182 36305,8171 36325,8159 36346,8154 36368,8154 36391,8154 36413,8159 36432,8171 36452,8182 36467,8199 36478,8218 36490,8237 36495,8259 36495,8282 Z"/>
   </g>
  </g>
  <g class="com.sun.star.drawing.ClosedBezierShape">
   <g id="id51">
    <rect class="BoundingBox" stroke="none" fill="none" x="36694" y="8156" width="256" height="257"/>
    <path fill="rgb(43,43,43)" stroke="none" d="M 36948,8284 C 36948,8307 36942,8329 36931,8348 36920,8367 36905,8383 36885,8395 36866,8406 36843,8412 36821,8412 36799,8412 36777,8406 36757,8395 36738,8383 36722,8367 36711,8348 36700,8329 36694,8307 36694,8284 36694,8262 36700,8240 36711,8221 36722,8201 36738,8185 36757,8174 36777,8163 36799,8157 36821,8157 36843,8157 36866,8163 36885,8174 36905,8185 36920,8201 36931,8221 36942,8240 36948,8262 36948,8284 Z"/>
   </g>
  </g>
  <g class="com.sun.star.drawing.ClosedBezierShape">
   <g id="id52">
    <rect class="BoundingBox" stroke="none" fill="none" x="37147" y="8153" width="256" height="257"/>
    <path fill="rgb(43,43,43)" stroke="none" d="M 37401,8282 C 37401,8304 37395,8325 37384,8345 37373,8364 37358,8381 37338,8392 37319,8403 37296,8409 37274,8409 37252,8409 37230,8403 37210,8392 37191,8381 37175,8364 37164,8345 37153,8325 37147,8304 37147,8282 37147,8259 37153,8237 37164,8218 37175,8199 37191,8182 37210,8171 37230,8159 37252,8154 37274,8154 37296,8154 37319,8159 37338,8171 37358,8182 37373,8199 37384,8218 37395,8237 37401,8259 37401,8282 Z"/>
   </g>
  </g>
  <g class="com.sun.star.drawing.ClosedBezierShape">
   <g id="id53">
    <rect class="BoundingBox" stroke="none" fill="none" x="35817" y="7062" width="2951" height="2050"/>
    <path fill="rgb(43,43,43)" stroke="none" d="M 38684,7800 L 38070,7800 38070,7145 C 38070,7100 38033,7063 37988,7063 L 36678,7063 C 36632,7063 36596,7100 36596,7145 L 36596,7800 35899,7800 C 35854,7800 35817,7837 35817,7882 L 35817,9029 C 35817,9074 35854,9111 35899,9111 L 38684,9111 C 38730,9111 38766,9074 38766,9029 L 38766,7882 C 38766,7837 38730,7800 38684,7800 Z M 36759,7227 L 37906,7227 37906,7800 36759,7800 36759,7227 Z M 38603,8947 L 35981,8947 35981,7964 38603,7964 38603,8947 Z"/>
   </g>
  </g>
  <g class="com.sun.star.drawing.ClosedBezierShape">
   <g id="id54">
    <rect class="BoundingBox" stroke="none" fill="none" x="4873" y="12870" width="862" height="861"/>
    <path fill="rgb(95,186,167)" stroke="none" d="M 5734,13299 C 5734,13375 5713,13449 5676,13514 5638,13580 5584,13635 5519,13672 5454,13710 5379,13729 5304,13729 5229,13729 5154,13710 5089,13672 5024,13635 4969,13580 4932,13514 4894,13449 4874,13375 4874,13299 4874,13224 4894,13150 4932,13084 4969,13019 5024,12965 5089,12927 5154,12889 5229,12870 5304,12870 5379,12870 5454,12889 5519,12927 5584,12965 5639,13019 5676,13084 5714,13150 5734,13224 5734,13299 Z"/>
   </g>
  </g>
  <g class="com.sun.star.drawing.ClosedBezierShape">
   <g id="id55">
    <rect class="BoundingBox" stroke="none" fill="none" x="3648" y="11597" width="3082" height="2287"/>
    <path fill="rgb(43,43,43)" stroke="none" d="M 6303,12087 L 5638,12087 5638,11833 C 5638,11703 5533,11598 5403,11598 L 4975,11598 C 4845,11598 4740,11703 4740,11833 L 4740,12087 4075,12087 C 3840,12087 3649,12278 3649,12512 L 3649,13456 C 3649,13691 3840,13882 4075,13882 L 6303,13882 C 6538,13882 6729,13691 6729,13456 L 6729,12512 C 6729,12278 6538,12087 6303,12087 Z M 4904,11833 C 4904,11794 4936,11762 4975,11762 L 5403,11762 C 5442,11762 5474,11794 5474,11833 L 5474,12087 4904,12087 4904,11833 Z M 6565,13456 C 6565,13601 6447,13718 6303,13718 L 5516,13718 C 5696,13608 5816,13410 5816,13184 5816,12839 5535,12559 5189,12559 4843,12559 4562,12839 4562,13184 4562,13410 4682,13608 4862,13718 L 4075,13718 C 3931,13718 3813,13601 3813,13456 L 3813,12512 C 3813,12368 3931,12250 4075,12250 L 4316,12250 4316,12678 C 4316,12723 4353,12760 4398,12760 4443,12760 4480,12723 4480,12678 L 4480,12250 6303,12250 C 6447,12250 6565,12368 6565,12512 L 6565,13456 Z M 5189,13647 C 4934,13647 4726,13440 4726,13184 4726,12929 4934,12722 5189,12722 5444,12722 5652,12929 5652,13184 5652,13440 5444,13647 5189,13647 Z"/>
   </g>
  </g>
  <g class="com.sun.star.drawing.ClosedBezierShape">
   <g id="id56">
    <rect class="BoundingBox" stroke="none" fill="none" x="11511" y="11946" width="166" height="1590"/>
    <path fill="rgb(43,43,43)" stroke="none" d="M 11594,11947 C 11549,11947 11512,11983 11512,12028 L 11512,13452 C 11512,13497 11548,13534 11594,13534 11639,13534 11676,13497 11676,13452 L 11676,12028 C 11676,11983 11640,11947 11594,11947 Z"/>
   </g>
  </g>
  <g class="com.sun.star.drawing.ClosedBezierShape">
   <g id="id57">
    <rect class="BoundingBox" stroke="none" fill="none" x="10761" y="11946" width="165" height="1590"/>
    <path fill="rgb(43,43,43)" stroke="none" d="M 10843,11947 C 10798,11947 10762,11983 10762,12028 L 10762,13452 C 10762,13497 10797,13534 10843,13534 10888,13534 10925,13497 10925,13452 L 10925,12028 C 10925,11983 10889,11947 10843,11947 Z"/>
   </g>
  </g>
  <g class="com.sun.star.drawing.ClosedBezierShape">
   <g id="id58">
    <rect class="BoundingBox" stroke="none" fill="none" x="10010" y="11946" width="165" height="1590"/>
    <path fill="rgb(43,43,43)" stroke="none" d="M 10093,11947 C 10047,11947 10011,11983 10011,12028 L 10011,13452 C 10011,13497 10047,13534 10093,13534 10138,13534 10174,13497 10174,13452 L 10174,12028 C 10174,11983 10138,11947 10093,11947 Z"/>
   </g>
  </g>
  <g class="com.sun.star.drawing.ClosedBezierShape">
   <g id="id59">
    <rect class="BoundingBox" stroke="none" fill="none" x="9259" y="11946" width="166" height="1590"/>
    <path fill="rgb(43,43,43)" stroke="none" d="M 9342,11947 C 9296,11947 9260,11983 9260,12028 L 9260,13452 C 9260,13497 9296,13534 9342,13534 9387,13534 9424,13497 9424,13452 L 9424,12028 C 9424,11983 9387,11947 9342,11947 Z"/>
   </g>
  </g>
  <g class="com.sun.star.drawing.ClosedBezierShape">
   <g id="id60">
    <rect class="BoundingBox" stroke="none" fill="none" x="9095" y="12421" width="494" height="330"/>
    <path fill="rgb(95,186,167)" stroke="none" d="M 9506,12750 L 9177,12750 C 9132,12750 9096,12714 9096,12669 L 9096,12504 C 9096,12459 9132,12422 9177,12422 L 9506,12422 C 9551,12422 9588,12459 9588,12504 L 9588,12669 C 9588,12714 9551,12750 9506,12750 Z"/>
   </g>
  </g>
  <g class="com.sun.star.drawing.ClosedBezierShape">
   <g id="id61">
    <rect class="BoundingBox" stroke="none" fill="none" x="9846" y="12585" width="493" height="330"/>
    <path fill="rgb(95,186,167)" stroke="none" d="M 10257,12913 L 9928,12913 C 9883,12913 9847,12877 9847,12832 L 9847,12668 C 9847,12623 9883,12586 9928,12586 L 10257,12586 C 10302,12586 10338,12623 10338,12668 L 10338,12832 C 10338,12877 10302,12913 10257,12913 Z"/>
   </g>
  </g>
  <g class="com.sun.star.drawing.ClosedBezierShape">
   <g id="id62">
    <rect class="BoundingBox" stroke="none" fill="none" x="10597" y="12749" width="493" height="330"/>
    <path fill="rgb(95,186,167)" stroke="none" d="M 11008,13077 L 10679,13077 C 10634,13077 10598,13041 10598,12996 L 10598,12831 C 10598,12786 10634,12750 10679,12750 L 11008,12750 C 11053,12750 11089,12786 11089,12831 L 11089,12996 C 11089,13041 11053,13077 11008,13077 Z"/>
   </g>
  </g>
  <g class="com.sun.star.drawing.ClosedBezierShape">
   <g id="id63">
    <rect class="BoundingBox" stroke="none" fill="none" x="11347" y="12421" width="494" height="330"/>
    <path fill="rgb(95,186,167)" stroke="none" d="M 11759,12750 L 11430,12750 C 11385,12750 11348,12714 11348,12669 L 11348,12504 C 11348,12459 11385,12422 11430,12422 L 11759,12422 C 11804,12422 11840,12459 11840,12504 L 11840,12669 C 11840,12714 11804,12750 11759,12750 Z"/>
   </g>
  </g>
  <g class="com.sun.star.drawing.PolyPolygonShape">
   <g id="id64">
    <rect class="BoundingBox" stroke="none" fill="none" x="19132" y="13300" width="267" height="750"/>
    <path fill="rgb(95,186,167)" stroke="none" d="M 19398,13382 L 19133,13300 19133,14048 19398,14048 19398,13382 Z"/>
   </g>
  </g>
  <g class="com.sun.star.drawing.ClosedBezierShape">
   <g id="id65">
    <rect class="BoundingBox" stroke="none" fill="none" x="19148" y="12439" width="1122" height="1055"/>
    <path fill="rgb(95,186,167)" stroke="none" d="M 19219,12440 C 19101,12829 19129,13171 19334,13375 19412,13453 19873,13504 20269,13490 L 19219,12440 Z"/>
   </g>
  </g>
  <g class="com.sun.star.drawing.ClosedBezierShape">
   <g id="id66">
    <rect class="BoundingBox" stroke="none" fill="none" x="19510" y="12004" width="774" height="774"/>
    <path fill="rgb(43,43,43)" stroke="none" d="M 20067,12759 C 20079,12771 20095,12776 20111,12776 20126,12776 20142,12771 20154,12759 20326,12587 20326,12306 20154,12134 19982,11962 19701,11962 19529,12134 19505,12158 19505,12197 19529,12221 19553,12245 19592,12245 19616,12221 19740,12097 19943,12097 20067,12221 20192,12345 20192,12548 20067,12672 20043,12696 20043,12735 20067,12759 Z"/>
   </g>
  </g>
  <g class="com.sun.star.drawing.ClosedBezierShape">
   <g id="id67">
    <rect class="BoundingBox" stroke="none" fill="none" x="19307" y="11716" width="1265" height="1265"/>
    <path fill="rgb(43,43,43)" stroke="none" d="M 20357,11931 C 20220,11793 20036,11717 19842,11717 19647,11717 19464,11793 19326,11931 19302,11955 19302,11994 19326,12018 19350,12042 19389,12042 19413,12018 19527,11903 19680,11840 19842,11840 20004,11840 20156,11903 20270,12018 20385,12132 20448,12285 20448,12447 20448,12609 20385,12761 20270,12875 20246,12899 20246,12937 20270,12961 20282,12974 20298,12979 20314,12979 20330,12979 20345,12973 20357,12961 20495,12824 20571,12642 20571,12447 20571,12252 20495,12069 20357,11931 Z"/>
   </g>
  </g>
  <g class="com.sun.star.drawing.ClosedBezierShape">
   <g id="id68">
    <rect class="BoundingBox" stroke="none" fill="none" x="19103" y="11429" width="1756" height="1756"/>
    <path fill="rgb(43,43,43)" stroke="none" d="M 20560,11728 C 20164,11331 19519,11331 19122,11728 19098,11752 19098,11791 19122,11815 19146,11839 19185,11839 19209,11815 19558,11466 20125,11466 20474,11815 20822,12163 20822,12730 20474,13078 20450,13102 20450,13141 20474,13165 20486,13177 20501,13183 20517,13183 20533,13183 20549,13177 20561,13165 20957,12769 20957,12124 20560,11728 Z"/>
   </g>
  </g>
  <g class="com.sun.star.drawing.ClosedBezierShape">
   <g id="id69">
    <rect class="BoundingBox" stroke="none" fill="none" x="18548" y="11947" width="1793" height="2105"/>
    <path fill="rgb(43,43,43)" stroke="none" d="M 19647,12752 L 19831,12569 C 19863,12537 19863,12485 19831,12453 19799,12421 19747,12421 19715,12453 L 19531,12637 18867,11972 C 18845,11950 18813,11943 18783,11952 18754,11962 18733,11987 18728,12018 18654,12504 18774,12931 19065,13222 19067,13224 19069,13226 19071,13228 L 19071,13927 18610,13927 C 18576,13927 18549,13954 18549,13988 18549,14022 18576,14050 18610,14050 L 19133,14050 C 19167,14050 19194,14022 19194,13988 L 19194,13331 C 19239,13365 19287,13396 19336,13422 L 19336,13988 C 19336,14022 19364,14050 19398,14050 L 19920,14050 C 19954,14050 19982,14022 19982,13988 19982,13954 19954,13927 19920,13927 L 19459,13927 19459,13481 C 19622,13546 19802,13580 19996,13580 20085,13580 20177,13573 20270,13559 20301,13555 20326,13533 20336,13504 20346,13474 20338,13442 20316,13420 L 19647,12752 Z M 19181,13106 C 18961,12886 18854,12573 18873,12210 L 20079,13415 C 19715,13433 19401,13327 19181,13106 Z"/>
   </g>
  </g>
  <g class="com.sun.star.drawing.PolyPolygonShape">
   <g id="id70">
    <rect class="BoundingBox" stroke="none" fill="none" x="27927" y="13593" width="1476" height="303"/>
    <path fill="rgb(95,186,167)" stroke="none" d="M 27927,13593 L 29401,13593 29401,13894 27927,13894 27927,13593 Z"/>
   </g>
  </g>
  <g class="com.sun.star.drawing.ClosedBezierShape">
   <g id="id71">
    <rect class="BoundingBox" stroke="none" fill="none" x="27774" y="13440" width="308" height="308"/>
    <path fill="rgb(43,43,43)" stroke="none" d="M 28080,13593 C 28080,13620 28073,13647 28059,13670 28046,13693 28026,13713 28003,13726 27980,13740 27954,13746 27927,13746 27900,13746 27873,13740 27850,13726 27827,13713 27808,13693 27794,13670 27781,13647 27774,13620 27774,13593 27774,13567 27781,13540 27794,13517 27808,13494 27827,13475 27850,13461 27873,13448 27900,13440 27927,13440 27954,13440 27980,13448 28003,13461 28026,13475 28046,13494 28059,13517 28073,13540 28080,13567 28080,13593 Z"/>
   </g>
  </g>
  <g class="com.sun.star.drawing.ClosedBezierShape">
   <g id="id72">
    <rect class="BoundingBox" stroke="none" fill="none" x="28159" y="13440" width="308" height="308"/>
    <path fill="rgb(43,43,43)" stroke="none" d="M 28465,13593 C 28465,13620 28458,13647 28444,13670 28431,13693 28412,13713 28388,13726 28365,13740 28339,13746 28312,13746 28285,13746 28259,13740 28235,13726 28212,13713 28193,13693 28179,13670 28166,13647 28159,13620 28159,13593 28159,13567 28166,13540 28179,13517 28193,13494 28212,13475 28235,13461 28259,13448 28285,13440 28312,13440 28339,13440 28365,13448 28388,13461 28412,13475 28431,13494 28444,13517 28458,13540 28465,13567 28465,13593 Z"/>
   </g>
  </g>
  <g class="com.sun.star.drawing.ClosedBezierShape">
   <g id="id73">
    <rect class="BoundingBox" stroke="none" fill="none" x="28025" y="11930" width="236" height="663"/>
    <path fill="rgb(43,43,43)" stroke="none" d="M 28155,12574 C 28167,12586 28182,12592 28198,12592 28214,12592 28229,12586 28241,12574 28265,12550 28265,12511 28241,12487 28117,12363 28117,12161 28241,12036 28265,12012 28265,11973 28241,11949 28217,11925 28179,11925 28155,11949 27982,12122 27982,12402 28155,12574 Z"/>
   </g>
  </g>
  <g class="com.sun.star.drawing.ClosedBezierShape">
   <g id="id74">
    <rect class="BoundingBox" stroke="none" fill="none" x="27738" y="11727" width="320" height="1069"/>
    <path fill="rgb(43,43,43)" stroke="none" d="M 27951,12777 C 27963,12789 27979,12794 27995,12794 28011,12794 28026,12788 28038,12777 28062,12754 28062,12715 28038,12691 27924,12576 27861,12424 27861,12262 27861,12100 27924,11947 28038,11833 28062,11809 28062,11770 28038,11746 28014,11722 27975,11722 27951,11746 27814,11884 27738,12067 27738,12262 27738,12457 27814,12640 27951,12777 Z"/>
   </g>
  </g>
  <g class="com.sun.star.drawing.ClosedBezierShape">
   <g id="id75">
    <rect class="BoundingBox" stroke="none" fill="none" x="27450" y="11524" width="405" height="1476"/>
    <path fill="rgb(43,43,43)" stroke="none" d="M 27792,12998 C 27807,12998 27823,12992 27835,12980 27859,12956 27859,12917 27835,12893 27666,12725 27573,12501 27573,12262 27573,12023 27666,11798 27835,11630 27859,11606 27859,11567 27835,11543 27811,11519 27772,11519 27748,11543 27556,11735 27450,11990 27450,12262 27450,12533 27556,12788 27748,12980 27760,12992 27776,12998 27792,12998 Z"/>
   </g>
  </g>
  <g class="com.sun.star.drawing.ClosedBezierShape">
   <g id="id76">
    <rect class="BoundingBox" stroke="none" fill="none" x="28754" y="11930" width="236" height="663"/>
    <path fill="rgb(43,43,43)" stroke="none" d="M 28772,12574 C 28784,12586 28799,12592 28815,12592 28831,12592 28847,12586 28859,12574 29031,12402 29031,12122 28859,11949 28835,11925 28796,11925 28772,11949 28748,11973 28748,12012 28772,12036 28896,12161 28896,12363 28772,12487 28748,12511 28748,12550 28772,12574 Z"/>
   </g>
  </g>
  <g class="com.sun.star.drawing.ClosedBezierShape">
   <g id="id77">
    <rect class="BoundingBox" stroke="none" fill="none" x="28957" y="11727" width="320" height="1070"/>
    <path fill="rgb(43,43,43)" stroke="none" d="M 29152,12262 C 29152,12424 29089,12576 28975,12691 28951,12715 28951,12754 28975,12777 28987,12789 29002,12795 29018,12795 29034,12795 29050,12789 29062,12777 29199,12640 29275,12457 29275,12262 29275,12067 29199,11884 29062,11746 29038,11722 28999,11722 28975,11746 28951,11770 28951,11809 28975,11833 29089,11947 29152,12100 29152,12262 Z"/>
   </g>
  </g>
  <g class="com.sun.star.drawing.ClosedBezierShape">
   <g id="id78">
    <rect class="BoundingBox" stroke="none" fill="none" x="29160" y="11524" width="404" height="1476"/>
    <path fill="rgb(43,43,43)" stroke="none" d="M 29178,12893 C 29154,12917 29154,12956 29178,12980 29190,12992 29207,12998 29222,12998 29238,12998 29253,12992 29265,12980 29661,12584 29661,11939 29265,11543 29241,11519 29202,11519 29178,11543 29154,11567 29154,11606 29178,11630 29527,11978 29527,12545 29178,12893 Z"/>
   </g>
  </g>
  <g class="com.sun.star.drawing.ClosedBezierShape">
   <g id="id79">
    <rect class="BoundingBox" stroke="none" fill="none" x="27512" y="12090" width="1953" height="1867"/>
    <path fill="rgb(43,43,43)" stroke="none" d="M 29401,13231 L 28564,13231 28564,12384 C 28618,12360 28656,12306 28656,12244 28656,12159 28588,12091 28503,12091 28419,12091 28350,12159 28350,12244 28350,12306 28388,12360 28442,12384 L 28442,13231 27574,13231 C 27540,13231 27512,13259 27512,13293 L 27512,13894 C 27512,13928 27540,13955 27574,13955 L 29401,13955 C 29435,13955 29463,13928 29463,13894 L 29463,13293 C 29463,13259 29435,13231 29401,13231 Z M 29340,13832 L 27635,13832 27635,13354 29340,13354 29340,13832 Z"/>
   </g>
  </g>
  <g class="com.sun.star.drawing.ClosedBezierShape">
   <g id="id80">
    <rect class="BoundingBox" stroke="none" fill="none" x="24330" y="12399" width="402" height="1058"/>
    <path fill="rgb(95,186,167)" stroke="none" d="M 24730,13173 L 24730,12400 24330,12400 24330,13173 C 24330,13304 24414,13414 24530,13455 24646,13414 24730,13304 24730,13173 Z"/>
   </g>
  </g>
  <g class="com.sun.star.drawing.ClosedBezierShape">
   <g id="id81">
    <rect class="BoundingBox" stroke="none" fill="none" x="24067" y="11944" width="726" height="1593"/>
    <path fill="rgb(43,43,43)" stroke="none" d="M 24730,12339 L 24725,12339 24725,12006 C 24725,11972 24697,11945 24663,11945 L 24205,11945 C 24171,11945 24144,11972 24144,12006 L 24144,12339 24128,12339 C 24095,12339 24067,12366 24067,12400 L 24067,13173 C 24067,13373 24229,13535 24429,13535 24629,13535 24791,13373 24791,13173 L 24791,12400 C 24791,12366 24764,12339 24730,12339 Z M 24267,12068 L 24602,12068 24602,12339 24267,12339 24267,12068 Z M 24669,13173 C 24669,13305 24561,13412 24429,13412 24297,13412 24190,13305 24190,13173 L 24190,12462 24669,12462 24669,13173 Z"/>
   </g>
  </g>
  <g class="com.sun.star.drawing.ClosedBezierShape">
   <g id="id82">
    <rect class="BoundingBox" stroke="none" fill="none" x="37419" y="12083" width="529" height="906"/>
    <path fill="rgb(95,186,167)" stroke="none" d="M 37770,12987 L 37595,12987 C 37498,12987 37419,12908 37419,12811 L 37419,12260 C 37419,12163 37498,12084 37595,12084 L 37770,12084 C 37867,12084 37946,12163 37946,12260 L 37946,12811 C 37946,12908 37867,12987 37770,12987 Z"/>
   </g>
  </g>
  <g class="com.sun.star.drawing.ClosedBezierShape">
   <g id="id83">
    <rect class="BoundingBox" stroke="none" fill="none" x="37202" y="11755" width="807" height="1295"/>
    <path fill="rgb(43,43,43)" stroke="none" d="M 37491,13048 L 37718,13048 C 37877,13048 38007,12918 38007,12760 L 38007,12045 C 38007,11886 37877,11756 37718,11756 L 37491,11756 C 37332,11756 37202,11886 37202,12045 L 37202,12760 C 37202,12918 37332,13048 37491,13048 Z M 37325,12045 C 37325,11954 37400,11879 37491,11879 L 37718,11879 C 37810,11879 37884,11954 37884,12045 L 37884,12760 C 37884,12851 37810,12925 37718,12925 L 37491,12925 C 37400,12925 37325,12851 37325,12760 L 37325,12045 Z"/>
   </g>
  </g>
  <g class="com.sun.star.drawing.ClosedBezierShape">
   <g id="id84">
    <rect class="BoundingBox" stroke="none" fill="none" x="36999" y="12507" width="1213" height="1219"/>
    <path fill="rgb(43,43,43)" stroke="none" d="M 38148,12508 C 38115,12508 38087,12536 38087,12570 L 38087,12890 C 38087,13056 37952,13192 37785,13192 L 37424,13192 C 37257,13192 37122,13056 37122,12890 L 37122,12570 C 37122,12536 37095,12508 37061,12508 37027,12508 36999,12536 36999,12570 L 36999,12890 C 36999,13124 37190,13314 37424,13314 L 37543,13314 37543,13601 37200,13601 C 37166,13601 37139,13629 37139,13662 37139,13696 37166,13724 37200,13724 L 38009,13724 C 38043,13724 38070,13696 38070,13662 38070,13629 38043,13601 38009,13601 L 37666,13601 37666,13314 37785,13314 C 38019,13314 38210,13124 38210,12890 L 38210,12570 C 38210,12536 38182,12508 38148,12508 Z"/>
   </g>
  </g>
  <g class="com.sun.star.drawing.PolyPolygonShape">
   <g id="id85">
    <rect class="BoundingBox" stroke="none" fill="none" x="14220" y="7890" width="230" height="394"/>
    <path fill="rgb(43,43,43)" stroke="none" d="M 14221,7891 L 14449,7891 14449,8283 14221,8283 14221,7891 Z"/>
   </g>
  </g>
  <g class="com.sun.star.drawing.PolyPolygonShape">
   <g id="id86">
    <rect class="BoundingBox" stroke="none" fill="none" x="14543" y="7890" width="230" height="394"/>
    <path fill="rgb(43,43,43)" stroke="none" d="M 14544,7891 L 14772,7891 14772,8283 14544,8283 14544,7891 Z"/>
   </g>
  </g>
  <g class="com.sun.star.drawing.PolyPolygonShape">
   <g id="id87">
    <rect class="BoundingBox" stroke="none" fill="none" x="14866" y="7890" width="230" height="394"/>
    <path fill="rgb(43,43,43)" stroke="none" d="M 14867,7891 L 15095,7891 15095,8283 14867,8283 14867,7891 Z"/>
   </g>
  </g>
  <g class="com.sun.star.drawing.PolyPolygonShape">
   <g id="id88">
    <rect class="BoundingBox" stroke="none" fill="none" x="15189" y="7890" width="230" height="394"/>
    <path fill="rgb(43,43,43)" stroke="none" d="M 15190,7891 L 15418,7891 15418,8283 15190,8283 15190,7891 Z"/>
   </g>
  </g>
  <g class="com.sun.star.drawing.ClosedBezierShape">
   <g id="id89">
    <rect class="BoundingBox" stroke="none" fill="none" x="13932" y="7600" width="1945" height="974"/>
    <path fill="rgb(43,43,43)" stroke="none" d="M 15766,7891 L 15681,7891 15681,7822 C 15681,7700 15582,7601 15461,7601 L 14153,7601 C 14032,7601 13933,7700 13933,7822 L 13933,8352 C 13933,8474 14032,8573 14153,8573 L 15461,8573 C 15582,8573 15681,8474 15681,8352 L 15681,8283 15766,8283 C 15827,8283 15876,8233 15876,8173 L 15876,8001 C 15876,7941 15827,7891 15766,7891 Z M 15461,8409 L 14153,8409 C 14122,8409 14097,8384 14097,8352 L 14097,7822 C 14097,7791 14122,7765 14153,7765 L 15461,7765 C 15492,7765 15517,7790 15517,7822 L 15517,8352 C 15517,8384 15492,8409 15461,8409 Z"/>
   </g>
  </g>
  <g class="com.sun.star.drawing.ClosedBezierShape">
   <g id="id90">
    <rect class="BoundingBox" stroke="none" fill="none" x="21660" y="16355" width="1175" height="2419"/>
    <path fill="rgb(95,186,167)" stroke="none" d="M 22542,18772 L 21951,18772 C 21790,18772 21660,18642 21660,18481 L 21660,16645 C 21660,16485 21790,16355 21951,16355 L 22542,16355 C 22703,16355 22833,16485 22833,16645 L 22833,18481 C 22833,18642 22703,18772 22542,18772 Z"/>
   </g>
  </g>
  <g class="com.sun.star.drawing.ClosedBezierShape">
   <g id="id91">
    <rect class="BoundingBox" stroke="none" fill="none" x="21285" y="16284" width="1668" height="2560"/>
    <path fill="rgb(43,43,43)" stroke="none" d="M 22590,16284 L 21646,16284 C 21447,16284 21285,16446 21285,16645 L 21285,18481 C 21285,18680 21447,18842 21646,18842 L 22590,18842 C 22789,18842 22951,18680 22951,18481 L 22951,16645 C 22951,16446 22789,16284 22590,16284 Z M 21646,16425 L 22590,16425 C 22711,16425 22810,16524 22810,16645 L 22810,18229 21426,18229 21426,16645 C 21426,16524 21525,16425 21646,16425 Z M 22590,18701 L 21646,18701 C 21525,18701 21426,18602 21426,18481 L 21426,18370 22810,18370 22810,18481 C 22810,18602 22711,18701 22590,18701 Z"/>
   </g>
  </g>
  <g class="com.sun.star.drawing.PolyPolygonShape">
   <g id="id92">
    <rect class="BoundingBox" stroke="none" fill="none" x="38004" y="17095" width="1377" height="1309"/>
    <path fill="rgb(95,186,167)" stroke="none" d="M 38004,17095 L 39379,17095 39379,18402 38004,18402 38004,17095 Z"/>
   </g>
  </g>
  <g class="com.sun.star.drawing.ClosedBezierShape">
   <g id="id93">
    <rect class="BoundingBox" stroke="none" fill="none" x="37621" y="16643" width="1842" height="1843"/>
    <path fill="rgb(43,43,43)" stroke="none" d="M 39379,16643 L 37702,16643 C 37657,16643 37621,16679 37621,16725 L 37621,18402 C 37621,18447 37657,18484 37702,18484 L 39379,18484 C 39425,18484 39461,18447 39461,18402 L 39461,16725 C 39461,16679 39425,16643 39379,16643 Z M 39055,16807 L 39055,16897 C 39055,16961 39003,17013 38939,17013 L 38143,17013 C 38079,17013 38027,16961 38027,16897 L 38027,16807 39055,16807 Z M 39298,18320 L 37784,18320 37784,16807 37863,16807 37863,16897 C 37863,17051 37989,17177 38143,17177 L 38939,17177 C 39093,17177 39219,17051 39219,16897 L 39219,16807 39298,16807 39298,18320 Z"/>
   </g>
  </g>
  <g class="com.sun.star.drawing.ClosedBezierShape">
   <g id="id94">
    <rect class="BoundingBox" stroke="none" fill="none" x="38219" y="17279" width="646" height="647"/>
    <path fill="rgb(43,43,43)" stroke="none" d="M 38541,17279 C 38363,17279 38219,17424 38219,17601 38219,17779 38363,17924 38541,17924 38719,17924 38863,17779 38863,17601 38863,17424 38719,17279 38541,17279 Z M 38541,17760 C 38454,17760 38383,17689 38383,17601 38383,17514 38454,17443 38541,17443 38628,17443 38699,17514 38699,17601 38699,17689 38628,17760 38541,17760 Z"/>
   </g>
  </g>
  <g class="com.sun.star.drawing.ClosedBezierShape">
   <g id="id95">
    <rect class="BoundingBox" stroke="none" fill="none" x="3471" y="16700" width="1578" height="2106"/>
    <path fill="rgb(95,186,167)" stroke="none" d="M 4382,16867 C 4382,17013 4264,17130 4119,17130 3973,17130 3855,17013 3855,16867 3855,16803 3879,16745 3917,16700 L 3671,16700 C 3561,16700 3472,16789 3472,16899 L 3472,18804 5048,18804 5048,16700 4320,16700 C 4358,16745 4382,16803 4382,16867 Z M 4119,18480 C 3818,18480 3574,18236 3574,17935 3574,17634 3818,17390 4119,17390 4419,17390 4663,17634 4663,17935 4663,18236 4419,18480 4119,18480 Z"/>
   </g>
  </g>
  <g class="com.sun.star.drawing.ClosedBezierShape">
   <g id="id96">
    <rect class="BoundingBox" stroke="none" fill="none" x="3127" y="16261" width="1983" height="2606"/>
    <path fill="rgb(43,43,43)" stroke="none" d="M 5048,18865 L 3189,18865 C 3155,18865 3128,18838 3128,18804 L 3128,16322 C 3128,16288 3155,16261 3189,16261 L 5048,16261 C 5082,16261 5109,16288 5109,16322 L 5109,18804 C 5109,18838 5082,18865 5048,18865 Z M 3250,18742 L 4986,18742 4986,16384 3250,16384 3250,18742 Z"/>
   </g>
  </g>
  <g class="com.sun.star.drawing.ClosedBezierShape">
   <g id="id97">
    <rect class="BoundingBox" stroke="none" fill="none" x="3491" y="17308" width="1255" height="1256"/>
    <path fill="rgb(43,43,43)" stroke="none" d="M 4119,18562 C 3773,18562 3492,18281 3492,17935 3492,17589 3773,17308 4119,17308 4464,17308 4745,17589 4745,17935 4745,18281 4464,18562 4119,18562 Z M 4119,17472 C 3863,17472 3655,17679 3655,17935 3655,18190 3863,18398 4119,18398 4374,18398 4582,18191 4582,17935 4582,17680 4374,17472 4119,17472 Z"/>
   </g>
  </g>
  <g class="com.sun.star.drawing.ClosedBezierShape">
   <g id="id98">
    <rect class="BoundingBox" stroke="none" fill="none" x="3990" y="17808" width="257" height="256"/>
    <path fill="rgb(43,43,43)" stroke="none" d="M 4246,17935 C 4246,17957 4240,17979 4229,17998 4218,18018 4201,18034 4182,18045 4163,18056 4141,18062 4119,18062 4096,18062 4074,18056 4055,18045 4036,18034 4019,18018 4008,17998 3997,17979 3991,17957 3991,17935 3991,17912 3997,17891 4008,17871 4019,17852 4036,17837 4055,17825 4074,17814 4096,17808 4119,17808 4141,17808 4163,17814 4182,17825 4201,17837 4218,17852 4229,17871 4240,17891 4246,17912 4246,17935 Z"/>
   </g>
  </g>
  <g class="com.sun.star.drawing.ClosedBezierShape">
   <g id="id99">
    <rect class="BoundingBox" stroke="none" fill="none" x="3793" y="16543" width="651" height="651"/>
    <path fill="rgb(43,43,43)" stroke="none" d="M 4119,17192 C 3940,17192 3794,17046 3794,16867 3794,16688 3940,16543 4119,16543 4297,16543 4443,16688 4443,16867 4443,17046 4297,17192 4119,17192 Z M 4119,16666 C 4007,16666 3917,16756 3917,16867 3917,16979 4007,17069 4119,17069 4230,17069 4320,16979 4320,16867 4320,16756 4230,16666 4119,16666 Z"/>
   </g>
  </g>
  <g class="com.sun.star.drawing.PolyPolygonShape">
   <g id="id100">
    <rect class="BoundingBox" stroke="none" fill="none" x="8399" y="17084" width="619" height="1760"/>
    <path fill="rgb(95,186,167)" stroke="none" d="M 9017,18842 L 8712,17084 8705,17084 8400,18842 9017,18842 Z"/>
   </g>
  </g>
  <g class="com.sun.star.drawing.ClosedBezierShape">
   <g id="id101">
    <rect class="BoundingBox" stroke="none" fill="none" x="8157" y="16845" width="880" height="2004"/>
    <path fill="rgb(43,43,43)" stroke="none" d="M 8750,16998 C 8750,16913 8681,16845 8597,16845 8512,16845 8444,16913 8444,16998 8444,17020 8449,17040 8457,17059 L 8159,18776 C 8153,18809 8176,18841 8209,18847 8213,18847 8216,18847 8220,18847 8249,18847 8275,18826 8280,18796 L 8336,18477 C 8346,18485 8358,18491 8372,18491 L 8822,18491 C 8836,18491 8848,18485 8859,18477 L 8914,18796 C 8919,18826 8945,18847 8974,18847 8978,18847 8981,18847 8985,18847 9018,18841 9041,18809 9035,18776 L 8737,17059 C 8745,17040 8750,17020 8750,16998 Z M 8628,17148 L 8749,17845 8445,17845 8566,17148 C 8576,17150 8586,17151 8597,17151 8608,17151 8618,17150 8628,17148 Z M 8822,18368 L 8372,18368 C 8366,18368 8360,18370 8354,18372 L 8424,17968 8770,17968 8840,18372 C 8834,18370 8828,18368 8822,18368 Z"/>
   </g>
  </g>
  <g class="com.sun.star.drawing.ClosedBezierShape">
   <g id="id102">
    <rect class="BoundingBox" stroke="none" fill="none" x="8115" y="16685" width="236" height="663"/>
    <path fill="rgb(43,43,43)" stroke="none" d="M 8245,17328 C 8257,17340 8273,17346 8289,17346 8304,17346 8320,17340 8332,17328 8356,17304 8356,17265 8332,17241 8208,17117 8208,16915 8332,16790 8356,16766 8356,16727 8332,16703 8308,16679 8269,16679 8245,16703 8073,16876 8073,17156 8245,17328 Z"/>
   </g>
  </g>
  <g class="com.sun.star.drawing.ClosedBezierShape">
   <g id="id103">
    <rect class="BoundingBox" stroke="none" fill="none" x="7828" y="16482" width="320" height="1070"/>
    <path fill="rgb(43,43,43)" stroke="none" d="M 8129,16587 C 8153,16563 8153,16524 8129,16500 8105,16476 8066,16476 8042,16500 7757,16784 7757,17247 8042,17532 8054,17544 8069,17550 8085,17550 8100,17550 8117,17544 8129,17532 8153,17508 8153,17469 8129,17445 7892,17208 7892,16823 8129,16587 Z"/>
   </g>
  </g>
  <g class="com.sun.star.drawing.ClosedBezierShape">
   <g id="id104">
    <rect class="BoundingBox" stroke="none" fill="none" x="7541" y="16279" width="404" height="1476"/>
    <path fill="rgb(43,43,43)" stroke="none" d="M 7926,16384 C 7950,16360 7950,16321 7926,16297 7902,16273 7863,16273 7839,16297 7442,16693 7442,17338 7839,17735 7851,17747 7866,17753 7882,17753 7898,17753 7914,17747 7926,17735 7950,17711 7950,17672 7926,17648 7577,17299 7577,16732 7926,16384 Z"/>
   </g>
  </g>
  <g class="com.sun.star.drawing.ClosedBezierShape">
   <g id="id105">
    <rect class="BoundingBox" stroke="none" fill="none" x="8843" y="16685" width="236" height="663"/>
    <path fill="rgb(43,43,43)" stroke="none" d="M 8862,17328 C 8874,17340 8890,17346 8906,17346 8921,17346 8937,17340 8949,17328 9121,17156 9121,16876 8949,16703 8925,16679 8886,16679 8862,16703 8838,16727 8838,16766 8862,16790 8987,16915 8987,17117 8862,17241 8838,17265 8838,17304 8862,17328 Z"/>
   </g>
  </g>
  <g class="com.sun.star.drawing.ClosedBezierShape">
   <g id="id106">
    <rect class="BoundingBox" stroke="none" fill="none" x="9046" y="16482" width="321" height="1070"/>
    <path fill="rgb(43,43,43)" stroke="none" d="M 9152,16500 C 9128,16476 9089,16476 9065,16500 9041,16524 9041,16563 9065,16587 9302,16823 9302,17208 9065,17445 9041,17469 9041,17508 9065,17532 9077,17544 9093,17550 9109,17550 9125,17550 9140,17544 9152,17532 9437,17247 9437,16784 9152,16500 Z"/>
   </g>
  </g>
  <g class="com.sun.star.drawing.ClosedBezierShape">
   <g id="id107">
    <rect class="BoundingBox" stroke="none" fill="none" x="9250" y="16279" width="404" height="1476"/>
    <path fill="rgb(43,43,43)" stroke="none" d="M 9355,16297 C 9331,16273 9293,16273 9269,16297 9245,16321 9245,16360 9269,16384 9617,16732 9617,17299 9269,17648 9245,17672 9245,17711 9269,17735 9281,17747 9296,17753 9312,17753 9328,17753 9343,17747 9355,17735 9752,17338 9752,16693 9355,16297 Z"/>
   </g>
  </g>
  <g class="com.sun.star.drawing.ClosedBezierShape">
   <g id="id108">
    <rect class="BoundingBox" stroke="none" fill="none" x="12004" y="16978" width="1172" height="1172"/>
    <path fill="rgb(232,95,99)" stroke="none" d="M 13175,17563 C 13175,17666 13148,17767 13097,17856 13045,17945 12971,18019 12882,18070 12793,18121 12693,18148 12590,18148 12487,18148 12386,18121 12297,18070 12208,18019 12134,17945 12083,17856 12032,17767 12005,17666 12005,17563 12005,17460 12032,17359 12083,17270 12134,17181 12208,17108 12297,17056 12386,17005 12487,16978 12590,16978 12693,16978 12793,17005 12882,17056 12971,17108 13045,17181 13097,17270 13148,17359 13175,17460 13175,17563 Z"/>
   </g>
  </g>
  <g class="com.sun.star.drawing.ClosedBezierShape">
   <g id="id109">
    <rect class="BoundingBox" stroke="none" fill="none" x="12098" y="16772" width="908" height="1584"/>
    <path fill="rgb(43,43,43)" stroke="none" d="M 12180,18354 C 12156,18354 12133,18343 12116,18323 12088,18287 12094,18236 12129,18208 L 12759,17703 12167,17484 C 12140,17473 12120,17449 12115,17419 12110,17390 12122,17361 12146,17342 L 12854,16790 C 12890,16762 12941,16768 12969,16804 12997,16840 12991,16891 12955,16919 L 12362,17381 12952,17600 C 12980,17610 13000,17635 13004,17664 13009,17693 12998,17722 12975,17741 L 12232,18336 C 12216,18348 12198,18354 12180,18354 Z"/>
   </g>
  </g>
  <g class="com.sun.star.drawing.ClosedBezierShape">
   <g id="id110">
    <rect class="BoundingBox" stroke="none" fill="none" x="15730" y="16922" width="2855" height="1284"/>
    <path fill="rgb(43,43,43)" stroke="none" d="M 18310,16922 L 16004,16922 C 15853,16922 15731,17045 15731,17196 L 15731,17930 C 15731,18081 15853,18204 16004,18204 L 18310,18204 C 18461,18204 18584,18081 18584,17930 L 18584,17196 C 18584,17045 18461,16922 18310,16922 Z M 18420,17930 C 18420,17991 18371,18040 18310,18040 L 16004,18040 C 15944,18040 15894,17991 15894,17930 L 15894,17196 C 15894,17135 15944,17086 16004,17086 L 18310,17086 C 18371,17086 18420,17135 18420,17196 L 18420,17930 Z"/>
   </g>
  </g>
  <g class="com.sun.star.drawing.PolyPolygonShape">
   <g id="id111">
    <rect class="BoundingBox" stroke="none" fill="none" x="16036" y="17182" width="176" height="177"/>
    <path fill="rgb(43,43,43)" stroke="none" d="M 16037,17182 L 16211,17182 16211,17357 16037,17357 16037,17182 Z"/>
   </g>
  </g>
  <g class="com.sun.star.drawing.PolyPolygonShape">
   <g id="id112">
    <rect class="BoundingBox" stroke="none" fill="none" x="16330" y="17182" width="177" height="177"/>
    <path fill="rgb(43,43,43)" stroke="none" d="M 16331,17182 L 16506,17182 16506,17357 16331,17357 16331,17182 Z"/>
   </g>
  </g>
  <g class="com.sun.star.drawing.PolyPolygonShape">
   <g id="id113">
    <rect class="BoundingBox" stroke="none" fill="none" x="16625" y="17182" width="177" height="177"/>
    <path fill="rgb(43,43,43)" stroke="none" d="M 16626,17182 L 16801,17182 16801,17357 16626,17357 16626,17182 Z"/>
   </g>
  </g>
  <g class="com.sun.star.drawing.PolyPolygonShape">
   <g id="id114">
    <rect class="BoundingBox" stroke="none" fill="none" x="16919" y="17182" width="177" height="177"/>
    <path fill="rgb(43,43,43)" stroke="none" d="M 16920,17182 L 17095,17182 17095,17357 16920,17357 16920,17182 Z"/>
   </g>
  </g>
  <g class="com.sun.star.drawing.PolyPolygonShape">
   <g id="id115">
    <rect class="BoundingBox" stroke="none" fill="none" x="17214" y="17182" width="177" height="177"/>
    <path fill="rgb(43,43,43)" stroke="none" d="M 17215,17182 L 17390,17182 17390,17357 17215,17357 17215,17182 Z"/>
   </g>
  </g>
  <g class="com.sun.star.drawing.PolyPolygonShape">
   <g id="id116">
    <rect class="BoundingBox" stroke="none" fill="none" x="17509" y="17182" width="176" height="177"/>
    <path fill="rgb(43,43,43)" stroke="none" d="M 17510,17182 L 17684,17182 17684,17357 17510,17357 17510,17182 Z"/>
   </g>
  </g>
  <g class="com.sun.star.drawing.PolyPolygonShape">
   <g id="id117">
    <rect class="BoundingBox" stroke="none" fill="none" x="17803" y="17182" width="177" height="177"/>
    <path fill="rgb(43,43,43)" stroke="none" d="M 17804,17182 L 17979,17182 17979,17357 17804,17357 17804,17182 Z"/>
   </g>
  </g>
  <g class="com.sun.star.drawing.PolyPolygonShape">
   <g id="id118">
    <rect class="BoundingBox" stroke="none" fill="none" x="18098" y="17182" width="177" height="177"/>
    <path fill="rgb(43,43,43)" stroke="none" d="M 18099,17182 L 18274,17182 18274,17357 18099,17357 18099,17182 Z"/>
   </g>
  </g>
  <g class="com.sun.star.drawing.PolyPolygonShape">
   <g id="id119">
    <rect class="BoundingBox" stroke="none" fill="none" x="16038" y="17755" width="177" height="177"/>
    <path fill="rgb(43,43,43)" stroke="none" d="M 16039,17755 L 16214,17755 16214,17930 16039,17930 16039,17755 Z"/>
   </g>
  </g>
  <g class="com.sun.star.drawing.PolyPolygonShape">
   <g id="id120">
    <rect class="BoundingBox" stroke="none" fill="none" x="16332" y="17755" width="177" height="177"/>
    <path fill="rgb(43,43,43)" stroke="none" d="M 16333,17755 L 16508,17755 16508,17930 16333,17930 16333,17755 Z"/>
   </g>
  </g>
  <g class="com.sun.star.drawing.PolyPolygonShape">
   <g id="id121">
    <rect class="BoundingBox" stroke="none" fill="none" x="16627" y="17755" width="177" height="177"/>
    <path fill="rgb(43,43,43)" stroke="none" d="M 16628,17755 L 16803,17755 16803,17930 16628,17930 16628,17755 Z"/>
   </g>
  </g>
  <g class="com.sun.star.drawing.PolyPolygonShape">
   <g id="id122">
    <rect class="BoundingBox" stroke="none" fill="none" x="16921" y="17755" width="764" height="177"/>
    <path fill="rgb(43,43,43)" stroke="none" d="M 16922,17755 L 17684,17755 17684,17930 16922,17930 16922,17755 Z"/>
   </g>
  </g>
  <g class="com.sun.star.drawing.PolyPolygonShape">
   <g id="id123">
    <rect class="BoundingBox" stroke="none" fill="none" x="17805" y="17755" width="177" height="177"/>
    <path fill="rgb(43,43,43)" stroke="none" d="M 17806,17755 L 17981,17755 17981,17930 17806,17930 17806,17755 Z"/>
   </g>
  </g>
  <g class="com.sun.star.drawing.PolyPolygonShape">
   <g id="id124">
    <rect class="BoundingBox" stroke="none" fill="none" x="18100" y="17755" width="177" height="177"/>
    <path fill="rgb(43,43,43)" stroke="none" d="M 18101,17755 L 18276,17755 18276,17930 18101,17930 18101,17755 Z"/>
   </g>
  </g>
  <g class="com.sun.star.drawing.PolyPolygonShape">
   <g id="id125">
    <rect class="BoundingBox" stroke="none" fill="none" x="16036" y="17469" width="308" height="176"/>
    <path fill="rgb(43,43,43)" stroke="none" d="M 16037,17469 L 16343,17469 16343,17643 16037,17643 16037,17469 Z"/>
   </g>
  </g>
  <g class="com.sun.star.drawing.PolyPolygonShape">
   <g id="id126">
    <rect class="BoundingBox" stroke="none" fill="none" x="16462" y="17469" width="177" height="176"/>
    <path fill="rgb(43,43,43)" stroke="none" d="M 16463,17469 L 16638,17469 16638,17643 16463,17643 16463,17469 Z"/>
   </g>
  </g>
  <g class="com.sun.star.drawing.PolyPolygonShape">
   <g id="id127">
    <rect class="BoundingBox" stroke="none" fill="none" x="16757" y="17469" width="176" height="176"/>
    <path fill="rgb(43,43,43)" stroke="none" d="M 16758,17469 L 16932,17469 16932,17643 16758,17643 16758,17469 Z"/>
   </g>
  </g>
  <g class="com.sun.star.drawing.PolyPolygonShape">
   <g id="id128">
    <rect class="BoundingBox" stroke="none" fill="none" x="17051" y="17469" width="177" height="176"/>
    <path fill="rgb(43,43,43)" stroke="none" d="M 17052,17469 L 17227,17469 17227,17643 17052,17643 17052,17469 Z"/>
   </g>
  </g>
  <g class="com.sun.star.drawing.PolyPolygonShape">
   <g id="id129">
    <rect class="BoundingBox" stroke="none" fill="none" x="17346" y="17469" width="177" height="176"/>
    <path fill="rgb(43,43,43)" stroke="none" d="M 17347,17469 L 17522,17469 17522,17643 17347,17643 17347,17469 Z"/>
   </g>
  </g>
  <g class="com.sun.star.drawing.PolyPolygonShape">
   <g id="id130">
    <rect class="BoundingBox" stroke="none" fill="none" x="17640" y="17469" width="177" height="176"/>
    <path fill="rgb(43,43,43)" stroke="none" d="M 17641,17469 L 17816,17469 17816,17643 17641,17643 17641,17469 Z"/>
   </g>
  </g>
  <g class="com.sun.star.drawing.PolyPolygonShape">
   <g id="id131">
    <rect class="BoundingBox" stroke="none" fill="none" x="17935" y="17469" width="340" height="176"/>
    <path fill="rgb(43,43,43)" stroke="none" d="M 17936,17469 L 18274,17469 18274,17643 17936,17643 17936,17469 Z"/>
   </g>
  </g>
  <g class="com.sun.star.drawing.PolyPolygonShape">
   <g id="id132">
    <rect class="BoundingBox" stroke="none" fill="none" x="26061" y="17258" width="682" height="1145"/>
    <path fill="rgb(95,186,167)" stroke="none" d="M 26061,17258 L 26741,17258 26741,18401 26061,18401 26061,17258 Z"/>
   </g>
  </g>
  <g class="com.sun.star.drawing.PolyPolygonShape">
   <g id="id133">
    <rect class="BoundingBox" stroke="none" fill="none" x="25945" y="16935" width="914" height="325"/>
    <path fill="rgb(95,186,167)" stroke="none" d="M 25945,16935 L 26857,16935 26857,17258 25945,17258 25945,16935 Z"/>
   </g>
  </g>
  <g class="com.sun.star.drawing.ClosedBezierShape">
   <g id="id134">
    <rect class="BoundingBox" stroke="none" fill="none" x="25427" y="16664" width="1493" height="1801"/>
    <path fill="rgb(43,43,43)" stroke="none" d="M 26857,16873 L 26462,16873 26462,16725 C 26462,16691 26434,16664 26400,16664 L 25945,16664 C 25911,16664 25883,16691 25883,16725 L 25883,16873 25488,16873 C 25454,16873 25427,16901 25427,16935 L 25427,17258 C 25427,17292 25454,17320 25488,17320 L 25543,17320 25543,18401 C 25543,18435 25571,18463 25605,18463 L 26741,18463 C 26774,18463 26802,18435 26802,18401 L 26802,17320 26857,17320 C 26891,17320 26918,17292 26918,17258 L 26918,16935 C 26918,16901 26891,16873 26857,16873 Z M 26006,16786 L 26339,16786 26339,16873 26006,16873 26006,16786 Z M 25550,16996 L 26795,16996 26795,17197 26741,17197 25605,17197 25550,17197 25550,16996 Z M 26679,18340 L 26569,18340 26569,17534 C 26569,17500 26542,17473 26508,17473 26474,17473 26447,17500 26447,17534 L 26447,18340 26346,18340 26346,17534 C 26346,17500 26318,17473 26284,17473 26250,17473 26223,17500 26223,17534 L 26223,18340 26122,18340 26122,17534 C 26122,17500 26095,17473 26061,17473 26027,17473 25999,17500 25999,17534 L 25999,18340 25899,18340 25899,17534 C 25899,17500 25871,17473 25837,17473 25803,17473 25776,17500 25776,17534 L 25776,18340 25666,18340 25666,17320 26679,17320 26679,18340 Z"/>
   </g>
  </g>
  <g class="com.sun.star.drawing.ClosedBezierShape">
   <g id="id135">
    <rect class="BoundingBox" stroke="none" fill="none" x="29808" y="17215" width="1815" height="966"/>
    <path fill="rgb(95,186,167)" stroke="none" d="M 30065,18100 L 30233,17849 C 30267,17799 30322,17770 30382,17770 L 30544,17770 30733,17770 30895,17770 C 30955,17770 31011,17799 31045,17849 L 31212,18100 C 31262,18173 31358,18200 31438,18162 L 31518,18124 C 31593,18089 31634,18007 31617,17926 L 31476,17228 C 31428,17209 31371,17210 31321,17239 L 31192,17313 31192,17311 30871,17311 30682,17311 30361,17311 30361,17313 30232,17239 C 30126,17178 29991,17239 29967,17359 L 29808,18147 29839,18162 C 29920,18200 30016,18173 30065,18100 Z"/>
   </g>
  </g>
  <g class="com.sun.star.drawing.ClosedBezierShape">
   <g id="id136">
    <rect class="BoundingBox" stroke="none" fill="none" x="29912" y="17285" width="308" height="308"/>
    <path fill="rgb(43,43,43)" stroke="none" d="M 30218,17438 C 30218,17465 30212,17491 30198,17514 30185,17538 30166,17557 30142,17570 30119,17584 30092,17591 30065,17591 30038,17591 30013,17584 29989,17570 29966,17557 29947,17538 29933,17514 29920,17491 29912,17465 29912,17438 29912,17411 29919,17385 29933,17361 29946,17338 29966,17319 29989,17305 30013,17292 30038,17285 30065,17285 30092,17285 30119,17292 30142,17305 30166,17319 30184,17338 30198,17361 30211,17385 30218,17411 30218,17438 Z"/>
   </g>
  </g>
  <g class="com.sun.star.drawing.ClosedBezierShape">
   <g id="id137">
    <rect class="BoundingBox" stroke="none" fill="none" x="29595" y="16886" width="2089" height="1356"/>
    <path fill="rgb(43,43,43)" stroke="none" d="M 31677,17914 L 31509,17080 C 31493,17003 31443,16940 31372,16908 31301,16875 31220,16879 31153,16918 L 31041,16982 30237,16982 30125,16918 C 30057,16879 29977,16875 29906,16908 29834,16940 29784,17003 29769,17080 L 29600,17914 C 29578,18023 29633,18132 29734,18180 L 29813,18217 C 29920,18268 30050,18232 30116,18134 L 30284,17883 C 30306,17851 30343,17831 30382,17831 L 30895,17831 C 30935,17831 30972,17851 30994,17883 L 31161,18134 C 31207,18202 31284,18240 31363,18240 31397,18240 31432,18233 31465,18217 L 31544,18180 C 31645,18132 31699,18023 31677,17914 Z M 31492,18069 L 31412,18106 C 31360,18131 31296,18114 31264,18065 L 31096,17815 C 31051,17748 30976,17708 30895,17708 L 30382,17708 C 30302,17708 30227,17748 30182,17815 L 30014,18065 C 29982,18114 29918,18131 29866,18106 L 29786,18069 C 29737,18045 29710,17992 29721,17938 L 29889,17104 C 29897,17066 29921,17036 29957,17020 29991,17004 30031,17006 30064,17025 L 30193,17099 C 30205,17106 30220,17108 30234,17105 L 31041,17105 C 31056,17109 31072,17106 31085,17099 L 31214,17025 C 31247,17006 31286,17004 31321,17020 31356,17036 31381,17066 31388,17104 L 31557,17938 C 31568,17992 31541,18045 31492,18069 Z"/>
   </g>
  </g>
  <g class="com.sun.star.drawing.PolyPolygonShape">
   <g id="id138">
    <rect class="BoundingBox" stroke="none" fill="none" x="30929" y="17254" width="370" height="370"/>
    <path fill="rgb(43,43,43)" stroke="none" d="M 31180,17254 L 31046,17254 31046,17371 30929,17371 30929,17505 31046,17505 31046,17622 31180,17622 31180,17505 31297,17505 31297,17371 31180,17371 31180,17254 Z"/>
   </g>
  </g>
  <g class="com.sun.star.drawing.ClosedBezierShape">
   <g id="id139">
    <rect class="BoundingBox" stroke="none" fill="none" x="34248" y="17028" width="904" height="1378"/>
    <path fill="rgb(95,186,167)" stroke="none" d="M 35150,17651 C 35150,18031 34948,18404 34699,18404 34450,18404 34248,18031 34248,17651 34248,17271 34450,17028 34699,17028 34948,17028 35150,17271 35150,17651 Z"/>
   </g>
  </g>
  <g class="com.sun.star.drawing.ClosedBezierShape">
   <g id="id140">
    <rect class="BoundingBox" stroke="none" fill="none" x="33988" y="16639" width="1255" height="1850"/>
    <path fill="rgb(43,43,43)" stroke="none" d="M 34615,16639 C 34251,16639 33988,16993 33988,17481 33988,17957 34246,18487 34615,18487 34985,18487 35241,17957 35241,17481 35241,16993 34978,16639 34615,16639 Z M 34726,16778 C 34726,16779 34725,16780 34725,16782 L 34725,17191 C 34725,17193 34726,17194 34726,17196 L 34506,17196 C 34506,17194 34507,17193 34507,17191 L 34507,16782 C 34507,16780 34506,16779 34506,16777 34541,16767 34577,16762 34615,16762 34653,16762 34691,16768 34726,16778 Z M 34615,18364 C 34351,18364 34111,17943 34111,17481 34111,17185 34218,16948 34384,16834 L 34384,17191 C 34384,17193 34385,17194 34385,17196 L 34286,17196 C 34252,17196 34225,17224 34225,17258 34225,17292 34252,17319 34286,17319 L 34946,17319 C 34980,17319 35008,17292 35008,17258 35008,17224 34980,17196 34946,17196 L 34847,17196 C 34847,17194 34848,17193 34848,17191 L 34848,16836 C 35013,16951 35118,17187 35118,17481 35118,17943 34878,18364 34615,18364 Z"/>
   </g>
  </g>
  <g class="com.sun.star.drawing.PolyPolygonShape">
   <g id="id141">
    <rect class="BoundingBox" stroke="none" fill="none" x="32455" y="11511" width="1194" height="2459"/>
    <path fill="rgb(95,186,167)" stroke="none" d="M 32455,11512 L 33647,11512 33647,13968 32455,13968 32455,11512 Z"/>
   </g>
  </g>
  <g class="com.sun.star.drawing.ClosedBezierShape">
   <g id="id142">
    <rect class="BoundingBox" stroke="none" fill="none" x="32795" y="12434" width="557" height="613"/>
    <path fill="rgb(43,43,43)" stroke="none" d="M 33336,12716 L 32836,12439 C 32817,12428 32795,12442 32795,12463 L 32795,13017 C 32795,13038 32817,13052 32836,13042 L 33336,12765 C 33355,12754 33355,12727 33336,12716 Z"/>
   </g>
  </g>
  <g class="com.sun.star.drawing.ClosedBezierShape">
   <g id="id143">
    <rect class="BoundingBox" stroke="none" fill="none" x="32058" y="11450" width="1988" height="2581"/>
    <path fill="rgb(43,43,43)" stroke="none" d="M 33982,11451 C 33980,11451 33979,11452 33976,11452 33974,11452 33973,11451 33971,11451 L 33647,11451 32455,11451 32131,11451 C 32129,11451 32127,11452 32125,11452 32123,11452 32121,11451 32119,11451 32085,11451 32058,11478 32058,11512 L 32058,13968 C 32058,14002 32085,14029 32119,14029 32121,14029 32123,14028 32125,14028 32127,14028 32129,14029 32131,14029 L 32455,14029 33647,14029 33971,14029 C 33973,14029 33974,14028 33976,14028 33979,14028 33980,14029 33982,14029 34016,14029 34044,14002 34044,13968 L 34044,11512 C 34044,11478 34016,11451 33982,11451 Z M 33708,12679 L 33708,12393 33921,12393 33921,12679 33708,12679 Z M 33921,12801 L 33921,13088 33708,13088 33708,12801 33921,12801 Z M 33708,12270 L 33708,11983 33921,11983 33921,12270 33708,12270 Z M 33708,13210 L 33921,13210 33921,13497 33708,13497 33708,13210 Z M 33921,11860 L 33708,11860 33708,11574 33921,11574 33921,11860 Z M 33708,13620 L 33921,13620 33921,13906 33708,13906 33708,13620 Z M 32180,12679 L 32180,12393 32393,12393 32393,12679 32180,12679 Z M 32393,12801 L 32393,13088 32180,13088 32180,12801 32393,12801 Z M 32180,12270 L 32180,11983 32393,11983 32393,12270 32180,12270 Z M 32180,13210 L 32393,13210 32393,13497 32180,13497 32180,13210 Z M 32393,11860 L 32180,11860 32180,11574 32393,11574 32393,11860 Z M 32180,13620 L 32393,13620 32393,13906 32180,13906 32180,13620 Z M 32516,11574 L 33585,11574 33585,13906 32516,13906 32516,11574 Z"/>
   </g>
  </g>
 </g>
</svg>